<svg width="35" height="38" viewBox="0 0 35 38" fill="none" xmlns="http://www.w3.org/2000/svg">
<g id="bell">
<path id="Vector" d="M33.7723 21.0623L30.8432 10.5235C29.9846 7.43602 28.1186 4.72416 25.5419 2.81894C22.9652 0.913725 19.8255 -0.0755109 16.622 0.00847928C13.4185 0.0924694 10.335 1.24487 7.86163 3.28249C5.38827 5.32011 3.66697 8.12603 2.97137 11.2542L0.703575 21.4523C0.453078 22.5792 0.458869 23.7479 0.720522 24.8723C0.982175 25.9966 1.49301 27.0478 2.21531 27.9482C2.9376 28.8487 3.85292 29.5755 4.89369 30.0748C5.93445 30.5742 7.07409 30.8334 8.22845 30.8334H9.94587C10.2997 32.5759 11.2451 34.1425 12.6218 35.2678C13.9985 36.3931 15.7219 37.0078 17.5 37.0078C19.2781 37.0078 21.0015 36.3931 22.3783 35.2678C23.755 34.1425 24.7004 32.5759 25.0542 30.8334H26.3461C27.5345 30.8335 28.7067 30.5588 29.7713 30.0309C30.8359 29.5029 31.7641 28.736 32.4832 27.7899C33.2024 26.8439 33.6931 25.7444 33.9169 24.5774C34.1408 23.4103 34.0903 22.2073 33.7723 21.0623ZM17.5 33.9167C16.5469 33.9128 15.6182 33.6144 14.8411 33.0625C14.064 32.5106 13.4764 31.732 13.1587 30.8334H21.8414C21.5237 31.732 20.9361 32.5106 20.1589 33.0625C19.3818 33.6144 18.4532 33.9128 17.5 33.9167ZM30.0276 25.9232C29.598 26.4931 29.0414 26.9549 28.4021 27.2721C27.7628 27.5892 27.0583 27.7529 26.3446 27.7501H8.22845C7.53591 27.7499 6.85224 27.5943 6.22789 27.2946C5.60355 26.9949 5.05448 26.5589 4.6212 26.0186C4.18792 25.4783 3.88151 24.8477 3.72457 24.1731C3.56763 23.4986 3.56417 22.7975 3.71445 22.1214L5.9807 11.9218C6.52699 9.46466 7.87897 7.26069 9.8217 5.6602C11.7644 4.05971 14.1864 3.15457 16.7026 3.08865C19.2189 3.02273 21.6849 3.79982 23.7088 5.2964C25.7327 6.79297 27.1982 8.92314 27.8724 11.3483L30.8015 21.8871C30.9951 22.5737 31.0259 23.296 30.8916 23.9966C30.7572 24.6972 30.4614 25.3569 30.0276 25.9232Z" fill="#C0B7E8"/>
</g>
</svg>
