<svg width="23" height="18" viewBox="0 0 23 18" fill="none" xmlns="http://www.w3.org/2000/svg">
<g id="noun-add-image-1048070 1" clip-path="url(#clip0_559_79)">
<path id="Vector" d="M19.479 2.14575H16.0412L14.843 0.020752H8.157L6.95875 2.14575H3.521C1.93575 2.14575 0.645996 3.4355 0.645996 5.02075V15.1043C0.645996 16.6895 1.93575 17.9793 3.521 17.9793H19.479C21.0642 17.9793 22.354 16.6895 22.354 15.1043V5.02075C22.354 3.4355 21.0642 2.14575 19.479 2.14575ZM11.5 15.7498C8.52475 15.7498 6.10425 13.329 6.10425 10.354C6.10425 7.37925 8.52475 4.9585 11.5 4.9585C14.4752 4.9585 16.8957 7.37925 16.8957 10.354C16.8957 13.329 14.4752 15.7498 11.5 15.7498ZM12.375 6.7085H10.625V9.4585H7.875V11.2085H10.625V13.9585H12.375V11.2085H15.125V9.4585H12.375V6.7085Z" fill="#8176AF"/>
</g>
<defs>
<clipPath id="clip0_559_79">
<rect width="22" height="18" fill="white" transform="translate(0.5)"/>
</clipPath>
</defs>
</svg>
