<svg width="58" height="58" viewBox="0 0 58 58" fill="none" xmlns="http://www.w3.org/2000/svg">
<g id="envelope" clip-path="url(#clip0_383_526)">
<path id="Vector" d="M45.9167 2.41669H12.0833C8.87981 2.42052 5.8086 3.69482 3.54336 5.96005C1.27813 8.22528 0.00383732 11.2965 0 14.5L0 43.5C0.00383732 46.7035 1.27813 49.7748 3.54336 52.04C5.8086 54.3052 8.87981 55.5795 12.0833 55.5834H45.9167C49.1202 55.5795 52.1914 54.3052 54.4566 52.04C56.7219 49.7748 57.9962 46.7035 58 43.5V14.5C57.9962 11.2965 56.7219 8.22528 54.4566 5.96005C52.1914 3.69482 49.1202 2.42052 45.9167 2.41669ZM12.0833 7.25002H45.9167C47.3637 7.25287 48.7768 7.68868 49.9741 8.50138C51.1714 9.31408 52.0981 10.4665 52.635 11.8103L34.1282 30.3195C32.7662 31.676 30.9223 32.4377 29 32.4377C27.0777 32.4377 25.2338 31.676 23.8718 30.3195L5.365 11.8103C5.90186 10.4665 6.82857 9.31408 8.02586 8.50138C9.22316 7.68868 10.6363 7.25287 12.0833 7.25002ZM45.9167 50.75H12.0833C10.1605 50.75 8.31645 49.9862 6.95681 48.6265C5.59717 47.2669 4.83333 45.4228 4.83333 43.5V18.125L20.4547 33.7367C22.723 35.9993 25.7961 37.2699 29 37.2699C32.2039 37.2699 35.277 35.9993 37.5453 33.7367L53.1667 18.125V43.5C53.1667 45.4228 52.4028 47.2669 51.0432 48.6265C49.6836 49.9862 47.8395 50.75 45.9167 50.75Z" fill="#C0B7E8"/>
</g>
<defs>
<clipPath id="clip0_383_526">
<rect width="58" height="58" fill="white"/>
</clipPath>
</defs>
</svg>
