<svg width="32" height="38" viewBox="0 0 32 38" fill="none" xmlns="http://www.w3.org/2000/svg">
<g id="exit 1" clip-path="url(#clip0_738_258)">
<path id="Vector" d="M30.4388 23.3598L25.2668 29.3399C25.0153 29.6208 24.6785 29.7762 24.3289 29.7726C23.9793 29.7691 23.6449 29.607 23.3977 29.3212C23.1505 29.0353 23.0102 28.6487 23.0072 28.2444C23.0042 27.8402 23.1386 27.4508 23.3814 27.16L28.5534 21.1799C28.7071 20.9987 28.8414 20.7968 28.9534 20.5786C28.9334 20.5786 28.9174 20.591 28.8974 20.591L7.98543 20.5416C7.63181 20.5416 7.29267 20.3792 7.04262 20.0901C6.79258 19.801 6.6521 19.4089 6.6521 19C6.6521 18.5911 6.79258 18.199 7.04262 17.9099C7.29267 17.6207 7.63181 17.4583 7.98543 17.4583L28.8894 17.5076C28.9268 17.5076 28.9574 17.5292 28.9934 17.5323C28.8752 17.2715 28.7252 17.0317 28.5481 16.8201L23.3761 10.8399C23.2488 10.6977 23.1472 10.5276 23.0773 10.3395C23.0074 10.1514 22.9706 9.94913 22.9691 9.74443C22.9676 9.53973 23.0013 9.33673 23.0683 9.14726C23.1354 8.9578 23.2344 8.78567 23.3596 8.64091C23.4848 8.49616 23.6336 8.38169 23.7975 8.30417C23.9614 8.22666 24.1369 8.18765 24.314 8.18943C24.491 8.19121 24.666 8.23374 24.8286 8.31454C24.9913 8.39533 25.1384 8.51278 25.2614 8.66002L30.4334 14.6401C31.4333 15.7966 31.995 17.3648 31.995 19C31.995 20.6352 31.4333 22.2034 30.4334 23.3598H30.4388Z" fill="#C0B7E8"/>
<path id="Vector_2" d="M9.33333 3.58334H6.66667C5.6058 3.58334 4.58839 4.07061 3.83824 4.93797C3.08809 5.80532 2.66667 6.98171 2.66667 8.20833V29.7917C2.66667 31.0183 3.08809 32.1947 3.83824 33.062C4.58839 33.9294 5.6058 34.4167 6.66667 34.4167H9.33333C9.68696 34.4167 10.0261 34.5791 10.2761 34.8682C10.5262 35.1573 10.6667 35.5495 10.6667 35.9583C10.6667 36.3672 10.5262 36.7593 10.2761 37.0485C10.0261 37.3376 9.68696 37.5 9.33333 37.5H6.66667C4.89921 37.4976 3.20474 36.6846 1.95496 35.2396C0.705176 33.7945 0.00211714 31.8353 0 29.7917L0 8.20833C0.00211714 6.16471 0.705176 4.20548 1.95496 2.76042C3.20474 1.31536 4.89921 0.502449 6.66667 0.5H9.33333C9.68696 0.5 10.0261 0.662426 10.2761 0.951542C10.5262 1.24066 10.6667 1.63279 10.6667 2.04167C10.6667 2.45054 10.5262 2.84267 10.2761 3.13179C10.0261 3.42091 9.68696 3.58334 9.33333 3.58334Z" fill="#C0B7E8"/>
</g>
<defs>
<clipPath id="clip0_738_258">
<rect width="32" height="37" fill="white" transform="matrix(1 0 0 -1 0 37.5)"/>
</clipPath>
</defs>
</svg>
