<svg width="23" height="23" viewBox="0 0 23 23" fill="none" xmlns="http://www.w3.org/2000/svg">
<g id="logo-google 1">
<path id="Vector" d="M20.5562 10.0625L20.4619 9.6627H11.7695V13.3418H16.9625C16.4234 15.9023 13.9213 17.25 11.8773 17.25C10.3904 17.25 8.82266 16.6256 7.78496 15.6193C6.72031 14.5861 6.04199 13.0633 6.04199 11.4955C6.04199 9.9457 6.73828 8.3959 7.75352 7.37617C8.76426 6.36094 10.2961 5.78594 11.8189 5.78594C13.5619 5.78594 14.8107 6.71133 15.2779 7.1336L17.8924 4.53262C17.1242 3.85879 15.0174 2.16074 11.7336 2.16074C9.2 2.16074 6.76973 3.13106 4.99531 4.90098C3.24336 6.64395 2.33594 9.16406 2.33594 11.5C2.33594 13.8359 3.19395 16.2348 4.89199 17.9912C6.70684 19.8645 9.27637 20.8438 11.9223 20.8438C14.3301 20.8438 16.6121 19.9004 18.2383 18.1889C19.8375 16.5043 20.6641 14.1729 20.6641 11.7291C20.6641 10.7004 20.5607 10.0895 20.5562 10.0625Z" fill="#C0B7E8"/>
</g>
</svg>
