<svg width="123" height="123" viewBox="0 0 123 123" fill="none" xmlns="http://www.w3.org/2000/svg">
<g id="Group">
<path id="Vector" d="M69.7735 14.0727C69.7706 17.6072 68.4368 21.0109 66.0375 23.6063C63.6383 26.2018 60.3496 27.7984 56.8263 28.0785C53.3029 28.3585 49.8033 27.3014 47.0242 25.1176C44.2451 22.9338 42.3903 19.7834 41.8291 16.2938C41.268 12.8042 42.0416 9.23116 43.996 6.28618C45.9504 3.3412 48.9422 1.24024 52.3757 0.401591C55.8092 -0.437058 59.4327 0.0481158 62.5246 1.76052C65.6166 3.47292 67.9503 6.28695 69.061 9.64235V9.6468L69.1412 9.8917C69.5508 11.2141 69.7735 12.6167 69.7735 14.0727Z" fill="url(#paint0_linear_332_159)"/>
<path id="Vector_2" d="M74.2261 14.0727C74.2278 18.1138 72.9073 22.0445 70.466 25.2649C68.0247 28.4853 64.5968 30.8185 60.7055 31.9084C56.8141 32.9983 52.673 32.785 48.9142 31.3012C45.1553 29.8174 41.9852 27.1444 39.8876 23.6904C33.7831 30.2668 30.6529 36.5806 29.4997 42.4581C27.3402 53.456 32.3494 61.8937 37.6658 67.9582C35.347 68.011 33.0797 68.6513 31.0759 69.8194C26.4541 63.9419 22.6427 56.1588 24.5751 46.3229C26.4325 38.4424 30.6221 31.3046 36.5971 25.841C37.5456 24.897 38.5385 23.9976 39.5715 23.1427C37.9581 20.2814 37.1387 17.0409 37.1982 13.7566C34.7404 15.4797 32.4384 17.4166 30.319 19.545C23.086 26.2571 18.0366 34.9876 15.8257 44.6042C13.1987 57.9799 18.4795 68.3144 24.308 75.6166L4.02634 94.1706L3.95509 94.2419C2.6497 95.5224 1.66767 97.0952 1.09011 98.8302C0.512542 100.565 0.356014 102.413 0.63345 104.22C1.09207 107.524 2.76625 110.574 4.81445 113.032L4.86342 113.09L8.05149 116.656L8.16726 116.768C10.7676 119.288 14.1783 121.242 17.7092 121.977C21.2668 122.712 25.5146 122.275 28.7071 119.083L28.814 118.976L46.9183 98.1379C53.2632 103.094 61.4338 107.431 71.3497 107.431C74.3421 107.425 77.3203 107.02 80.206 106.228C87.2585 104.158 93.7508 100.519 99.1963 95.5821C101.089 94.2463 102.901 92.8082 104.629 91.2675C110.389 86.1826 114.971 79.9028 118.055 72.8657C121.139 65.8285 122.652 58.2034 122.488 50.5218C122.352 43.1423 120.608 35.8813 117.378 29.2448C114.149 22.6083 109.51 16.756 103.787 12.0958C94.646 4.70826 83.2497 0.675868 71.4967 0.67038H71.5145C70.526 0.67038 69.542 0.697096 68.5624 0.750527C70.2989 2.42471 72.4495 5.61722 73.4469 8.76522C74.2217 11.2008 74.2261 13.4583 74.2261 14.0727ZM93.7285 88.5559C89.2217 92.764 83.8027 95.8728 77.8951 97.6392C75.7712 98.2225 73.576 98.5253 71.3764 98.5298C64.0742 98.5298 57.7381 95.2037 52.5954 91.2275C53.7308 89.2238 54.3274 86.993 54.3764 84.7489C61.318 90.938 71.0603 96.9758 82.8152 93.7744C86.306 92.8215 89.9572 91.1473 93.7285 88.5559ZM34.5979 78.2615C36.468 76.3914 39.527 76.3914 41.3926 78.2615L44.0864 80.9553C45.9565 82.8877 45.9254 85.9779 44.0864 87.8346L43.9885 87.937L25.5235 109.189C24.5067 106.479 22.9252 104.015 20.8839 101.963C18.8796 99.9212 16.4588 98.3357 13.7864 97.3142L34.5267 78.3283L34.5935 78.2615H34.5979Z" fill="url(#paint1_linear_332_159)"/>
</g>
<defs>
<linearGradient id="paint0_linear_332_159" x1="55.7121" y1="0" x2="55.7121" y2="28.1227" gradientUnits="userSpaceOnUse">
<stop stop-color="#A097CB"/>
<stop offset="1" stop-color="white" stop-opacity="0.99"/>
</linearGradient>
<linearGradient id="paint1_linear_332_159" x1="61.5" y1="0.67038" x2="61.5" y2="122.285" gradientUnits="userSpaceOnUse">
<stop stop-color="#A097CB"/>
<stop offset="1" stop-color="#8176AF" stop-opacity="0.99"/>
</linearGradient>
</defs>
</svg>
