<svg width="68" height="66" viewBox="0 0 68 66" fill="none" xmlns="http://www.w3.org/2000/svg">
<g id="waving-hand-medium-skin-tone 1">
<path id="Vector" d="M31.6602 55.3987C29.5926 53.7642 10.3929 35.3719 10.1783 35.1708C9.33036 34.3355 8.79646 33.4692 8.64989 32.6751C8.4981 31.8501 8.75458 31.1283 9.43505 30.458C10.0684 29.834 10.8431 29.504 11.6754 29.504C12.6908 29.504 13.7325 29.9784 14.6014 30.8395L23.3061 39.0792C23.4579 39.2236 23.6568 39.2958 23.8505 39.2958C24.0547 39.2958 24.2536 39.2184 24.4054 39.0689C24.709 38.7698 24.709 38.2851 24.4106 37.9861L10.5133 23.8476C9.12099 22.4761 8.46669 20.3775 10.1208 18.7481C10.7541 18.1242 11.5288 17.7942 12.3611 17.7942C13.3765 17.7942 14.4182 18.2686 15.2871 19.1297L29.5036 32.7834C29.6554 32.9278 29.8543 33.0051 30.0532 33.0051C30.2522 33.0051 30.4563 32.9278 30.6081 32.7783C30.9117 32.4792 30.9169 31.9945 30.6133 31.6903L13.5388 14.4478C12.7484 13.6692 12.2721 12.7359 12.1883 11.8284C12.1098 10.9055 12.4396 10.0495 13.1462 9.35342C13.7796 8.72952 14.5543 8.39952 15.3865 8.39952C16.402 8.39952 17.4436 8.87389 18.3125 9.72983L35.7273 26.4567C35.8791 26.6011 36.078 26.6784 36.2769 26.6784C36.4758 26.6784 36.68 26.6011 36.8318 26.4515C37.1354 26.1525 37.1406 25.6678 36.837 25.3636L24.1908 12.5606C23.3951 11.7769 22.9188 10.8487 22.8403 9.94124C22.7618 9.01827 23.0915 8.16233 23.7982 7.46624C24.4315 6.84233 25.2062 6.51233 26.0385 6.51233C27.054 6.51233 28.0956 6.9867 28.9645 7.8478C33.6022 12.3337 45.7093 24.0642 46.1175 24.4973C47.6722 25.5544 47.9862 23.9559 48.0647 22.9195C48.1537 21.713 46.7509 17.5003 47.5675 13.7105C48.9389 8.6728 52.8908 9.4978 52.9798 9.53905C55.1468 10.5394 54.7333 12.0347 53.9639 15.0408L53.8854 15.6337C53.0793 19.5628 58.6172 31.2056 59.0255 32.077C61.1978 36.7589 63.6998 46.2515 55.4138 54.4139C46.3322 63.36 35.0887 58.7761 31.6602 55.3987Z" fill="url(#paint0_radial_750_307)"/>
<path id="Vector_2" d="M43.312 60.4209C37.7426 60.4209 33.0055 57.7964 31.1368 55.9762C29.4566 54.6253 18.8517 44.5397 10.215 36.2845C9.86431 35.9494 9.66017 35.7586 9.63924 35.7328C8.66041 34.7686 8.05322 33.7631 7.88049 32.8144C7.68158 31.7367 8.02181 30.7622 8.88025 29.9114C9.66541 29.138 10.6285 28.7306 11.6754 28.7306C12.9055 28.7306 14.1408 29.2875 15.1563 30.293L23.8506 38.5223L9.94806 24.3839C8.34635 22.8061 7.54025 20.1919 9.56596 18.2015C10.3511 17.4281 11.3142 17.0208 12.3611 17.0208C13.5912 17.0208 14.8265 17.5776 15.842 18.5831L30.0481 32.2265L12.9788 14.9892C12.068 14.092 11.5079 12.9937 11.4085 11.9006C11.309 10.7353 11.7173 9.66795 12.5914 8.80686C13.3766 8.03342 14.3397 7.62608 15.3866 7.62608C16.6114 7.62608 17.8467 8.1778 18.8674 9.18327L36.277 25.905L23.6307 13.102C22.7147 12.1997 22.1546 11.1014 22.0604 10.0083C21.961 8.84811 22.3692 7.78077 23.2434 6.91967C24.0285 6.14624 24.9917 5.73889 26.0385 5.73889C27.2686 5.73889 28.5039 6.29577 29.5194 7.30124L33.2934 10.9467C40.0196 17.4436 45.6413 22.8834 46.2432 23.4919C46.5363 23.7239 46.9185 23.8115 47.0807 23.7342C47.1854 23.6826 47.3006 23.4455 47.2796 22.9453C47.2482 22.0687 47.1226 20.9808 46.9917 19.8309C46.73 17.5209 46.4578 15.1284 46.7981 13.5506C47.5413 10.8126 49.0017 9.65249 50.0905 9.15233C51.5875 8.4717 53.0374 8.70889 53.3149 8.8378C56.0367 10.0959 55.4976 12.1997 54.7543 15.1181L54.7386 15.1903L54.6549 15.7936C54.1105 18.4336 56.9056 25.7297 59.7008 31.6748L59.7427 31.7573C61.6113 35.7792 64.9771 46.0969 55.9739 54.9656C51.8335 59.0339 47.3529 60.4209 43.312 60.4209ZM11.6754 30.2775C11.0578 30.2775 10.4715 30.5301 9.98994 31.0045C9.49267 31.4944 9.31994 31.9687 9.42463 32.5359C9.53978 33.1598 10.0056 33.9023 10.7332 34.6242C10.7385 34.6294 10.9478 34.8305 11.309 35.1708C23.5679 46.8909 30.9693 53.857 32.1523 54.7955L32.2151 54.8522C35.1045 57.6984 45.8402 62.7515 54.859 53.8673C63.166 45.6844 60.041 36.1298 58.3085 32.3967L58.2718 32.3194C56.4712 28.4934 52.3779 19.2122 53.1055 15.51L53.2259 14.7365C54.032 11.5809 54.0791 10.9209 52.7129 10.2712C52.3099 10.199 49.4205 9.85358 48.316 13.9115C48.0386 15.2058 48.3056 17.5725 48.5411 19.6608C48.6772 20.8415 48.8028 21.9605 48.8342 22.8937C48.8866 24.3633 48.1799 24.9253 47.7507 25.1315C46.8766 25.5492 45.8349 25.1934 45.1859 24.6572L45.1178 24.5953C44.7985 24.255 37.2035 16.9176 32.1785 12.0605L28.3992 8.40467C27.1116 7.13108 25.4523 6.91967 24.3374 8.01795C23.793 8.5542 23.547 9.18327 23.6045 9.87936C23.6674 10.6064 24.0652 11.3644 24.7299 12.0192L37.4024 24.8222C37.9991 25.4203 37.9991 26.4 37.3919 26.9981C36.8109 27.5705 35.7849 27.5808 35.1882 27.0136L17.763 10.2815C16.4753 9.01311 14.8108 8.8017 13.7011 9.89999C13.1567 10.4362 12.9107 11.0653 12.9683 11.7614C13.0363 12.4884 13.4342 13.2515 14.0937 13.8961L31.1735 31.1489C31.7754 31.747 31.7702 32.7267 31.163 33.3248C30.582 33.8972 29.556 33.9075 28.9593 33.3403L14.7375 19.6814C13.4499 18.4026 11.7853 18.1964 10.6756 19.2947C9.31994 20.6301 10.0423 22.2853 11.0682 23.3011L24.976 37.4498C25.5727 38.048 25.5674 39.0225 24.9603 39.6155C24.374 40.193 23.3585 40.1981 22.7618 39.6361L14.057 31.3964C13.3242 30.6694 12.4815 30.2775 11.6754 30.2775Z" fill="#8177B0"/>
<path id="Vector_3" d="M44.8666 23.9972C41.9929 29.7773 42.3646 37.8675 46.6777 44.3592C47.1645 45.2358 47.9968 44.8078 47.5728 43.9055C42.3646 32.9278 47.824 25.0181 47.824 25.0181L44.8666 23.9972Z" fill="#8177B0"/>
<path id="Vector_4" d="M33.5656 2.32034C35.1463 1.913 36.8318 1.94909 38.4702 2.3255C40.0981 2.71222 41.7259 3.5269 42.9351 4.85722C44.1181 6.17722 44.8456 7.78081 45.0916 9.46175C45.322 11.1272 45.1074 12.8442 44.3065 14.2674C44.2123 12.6689 43.9296 11.1994 43.4533 9.84331C43.2073 9.16784 42.9194 8.52331 42.5687 7.91487C42.2232 7.31159 41.8149 6.71346 41.3805 6.22362C40.4959 5.21815 39.2972 4.4344 37.952 3.82597C36.6015 3.1969 35.1306 2.73284 33.5656 2.32034Z" fill="#C0B7E8" fill-opacity="0.42"/>
<path id="Vector_5" d="M34 7.20841C34.8741 6.66185 35.9681 6.54841 36.9993 6.72888C38.0409 6.90935 39.0355 7.41982 39.8206 8.12622C40.6005 8.84294 41.1554 9.74529 41.5009 10.6837C41.6684 11.1529 41.7521 11.6479 41.8306 12.1275C41.8568 12.6225 41.8568 13.1175 41.7783 13.6125C41.4171 13.2361 41.1345 12.8597 40.8675 12.4936C40.5587 12.1481 40.3179 11.782 40.0405 11.4468C39.4961 10.7817 38.9674 10.1784 38.3969 9.64216C37.8106 9.12138 37.193 8.66247 36.4759 8.26544C35.764 7.8581 34.9631 7.51779 34 7.20841Z" fill="#C0B7E8" fill-opacity="0.41"/>
<path id="Vector_6" d="M4.07507 39.8784C4.81311 41.3015 5.58257 42.6215 6.47765 43.7869C7.36749 44.9522 8.38819 45.9422 9.5764 46.5867C10.1522 46.9012 10.8379 47.1745 11.5079 47.3808C12.1831 47.5922 12.8845 47.7365 13.6069 47.8345C15.0516 48.0098 16.5695 47.9789 18.1765 47.7365C16.9307 48.8039 15.2662 49.3711 13.5702 49.4948C11.8533 49.6083 10.1103 49.2422 8.55046 48.3759C6.98015 47.4942 5.82858 46.0917 5.10624 44.6015C4.3839 43.1011 3.99655 41.4872 4.07507 39.8784Z" fill="#C0B7E8" fill-opacity="0.42"/>
<path id="Vector_7" d="M9.0216 39.2751C9.52933 40.1414 10.0318 40.8375 10.5814 41.4459C11.1258 42.0544 11.7121 42.5545 12.3507 43.0083C12.9997 43.4466 13.7116 43.8333 14.4863 44.22C14.8736 44.4159 15.2871 44.5706 15.6954 44.7975C16.1194 44.978 16.5486 45.1687 16.9988 45.442C16.5225 45.6173 16.0357 45.7205 15.5384 45.7978C15.0464 45.8184 14.5386 45.8442 14.0361 45.7772C13.0311 45.6431 12.0261 45.2976 11.1468 44.6944C10.2831 44.0808 9.56597 43.23 9.17339 42.2658C8.77558 41.3067 8.66042 40.2342 9.0216 39.2751Z" fill="#C0B7E8" fill-opacity="0.41"/>
</g>
<defs>
<radialGradient id="paint0_radial_750_307" cx="0" cy="0" r="1" gradientUnits="userSpaceOnUse" gradientTransform="translate(23.5554 19.5937) rotate(-44.5692) scale(47.2826 47.2772)">
<stop offset="0.3533" stop-color="#C0B7E8"/>
<stop offset="0.8723" stop-color="#8176AF"/>
</radialGradient>
</defs>
</svg>
