<svg width="38" height="38" viewBox="0 0 38 38" fill="none" xmlns="http://www.w3.org/2000/svg">
<g id="home" clip-path="url(#clip0_738_253)">
<path id="Vector" d="M36.1449 14.4814L24.4514 2.7863C23.0041 1.34328 21.0437 0.532959 19 0.532959C16.9563 0.532959 14.9959 1.34328 13.5487 2.7863L1.85514 14.4814C1.42413 14.9096 1.08241 15.4192 0.849796 15.9805C0.617178 16.5418 0.498288 17.1437 0.500019 17.7513V32.8858C0.500019 34.1124 0.987294 35.2888 1.85465 36.1562C2.72201 37.0235 3.89839 37.5108 5.12502 37.5108H32.875C34.1016 37.5108 35.278 37.0235 36.1454 36.1562C37.0127 35.2888 37.5 34.1124 37.5 32.8858V17.7513C37.5017 17.1437 37.3829 16.5418 37.1502 15.9805C36.9176 15.4192 36.5759 14.9096 36.1449 14.4814ZM23.625 34.4275H14.375V28.3626C14.375 27.1359 14.8623 25.9595 15.7296 25.0922C16.597 24.2248 17.7734 23.7376 19 23.7376C20.2266 23.7376 21.403 24.2248 22.2704 25.0922C23.1377 25.9595 23.625 27.1359 23.625 28.3626V34.4275ZM34.4167 32.8858C34.4167 33.2947 34.2543 33.6868 33.9651 33.9759C33.676 34.265 33.2839 34.4275 32.875 34.4275H26.7084V28.3626C26.7084 26.3182 25.8962 24.3575 24.4506 22.9119C23.005 21.4663 21.0444 20.6542 19 20.6542C16.9556 20.6542 14.995 21.4663 13.5494 22.9119C12.1038 24.3575 11.2917 26.3182 11.2917 28.3626V34.4275H5.12502C4.71614 34.4275 4.32401 34.265 4.0349 33.9759C3.74578 33.6868 3.58335 33.2947 3.58335 32.8858V17.7513C3.58478 17.3427 3.74706 16.9511 4.03506 16.6613L15.7286 4.97084C16.5976 4.10586 17.7739 3.62025 19 3.62025C20.2262 3.62025 21.4024 4.10586 22.2714 4.97084L33.965 16.6659C34.2519 16.9546 34.414 17.3443 34.4167 17.7513V32.8858Z" fill="#C0B7E8"/>
</g>
<defs>
<clipPath id="clip0_738_253">
<rect width="37" height="37" fill="white" transform="translate(0.5 0.5)"/>
</clipPath>
</defs>
</svg>
