<?xml version="1.0" encoding="utf-8"?>
<!-- Generator: Adobe Illustrator 24.1.1, SVG Export Plug-In . SVG Version: 6.00 Build 0)  -->
<svg version="1.1" id="Layer_1" xmlns="http://www.w3.org/2000/svg" xmlns:xlink="http://www.w3.org/1999/xlink" x="0px" y="0px"
	 viewBox="0 0 512 512" style="enable-background:new 0 0 512 512;" xml:space="preserve">
<style type="text/css">
	.st0{fill-rule:evenodd;clip-rule:evenodd;fill:#555555;}
</style>
<g>
	<path class="st0" d="M281.6,409.6c28.3,0,51.2,22.9,51.2,51.2c0,28.3-22.9,51.2-51.2,51.2s-51.2-22.9-51.2-51.2
		C230.4,432.5,253.3,409.6,281.6,409.6z M121.4,332.8c35.4,0,64,28.7,64,64s-28.6,64-64,64s-64-28.6-64-64S86,332.8,121.4,332.8z
		 M417.8,345.6c28.3,0,51.2,22.9,51.2,51.2c0,28.3-22.9,51.2-51.2,51.2s-51.2-22.9-51.2-51.2C366.6,368.5,389.5,345.6,417.8,345.6z
		 M473.6,238.6c21.2,0,38.4,17.2,38.4,38.4c0,21.2-17.2,38.4-38.4,38.4s-38.4-17.2-38.4-38.4C435.2,255.8,452.4,238.6,473.6,238.6z
		 M64,153.6c35.3,0,64,28.6,64,64s-28.7,64-64,64s-64-28.7-64-64S28.6,153.6,64,153.6z M455.3,133.3c14.1,0,25.6,11.5,25.6,25.6
		c0,14.2-11.5,25.6-25.6,25.6s-25.6-11.4-25.6-25.6C429.7,144.8,441.2,133.3,455.3,133.3z M204.8,0c42.4,0,76.8,34.4,76.8,76.8
		s-34.4,76.8-76.8,76.8S128,119.2,128,76.8S162.4,0,204.8,0z M396.8,76.8c7.1,0,12.8,5.7,12.8,12.8c0,7.1-5.7,12.8-12.8,12.8
		c-7.1,0-12.8-5.7-12.8-12.8C384,82.5,389.7,76.8,396.8,76.8z"/>
</g>
</svg>
