<svg width="44" height="44" viewBox="0 0 44 44" fill="none" xmlns="http://www.w3.org/2000/svg">
<g id="users-alt 1" clip-path="url(#clip0_738_267)">
<path id="Vector" d="M22 29.3333C20.5496 29.3333 19.1318 28.9032 17.9258 28.0974C16.7199 27.2917 15.7799 26.1463 15.2249 24.8064C14.6698 23.4664 14.5246 21.9919 14.8076 20.5693C15.0905 19.1468 15.789 17.8401 16.8146 16.8146C17.8401 15.789 19.1468 15.0905 20.5693 14.8076C21.9919 14.5246 23.4664 14.6698 24.8063 15.2249C26.1463 15.7799 27.2916 16.7199 28.0974 17.9258C28.9032 19.1318 29.3333 20.5496 29.3333 22C29.3333 23.9449 28.5607 25.8102 27.1855 27.1855C25.8102 28.5607 23.9449 29.3333 22 29.3333ZM22 18.3333C21.2748 18.3333 20.5659 18.5484 19.9629 18.9513C19.3599 19.3542 18.89 19.9268 18.6124 20.5968C18.3349 21.2668 18.2623 22.0041 18.4038 22.7153C18.5453 23.4266 18.8945 24.0799 19.4073 24.5927C19.9201 25.1055 20.5734 25.4547 21.2847 25.5962C21.9959 25.7377 22.7332 25.6651 23.4032 25.3876C24.0732 25.11 24.6458 24.6401 25.0487 24.0371C25.4516 23.4341 25.6667 22.7252 25.6667 22C25.6667 21.0275 25.2804 20.0949 24.5927 19.4073C23.9051 18.7196 22.9725 18.3333 22 18.3333ZM33 42.1667C33 39.2493 31.8411 36.4514 29.7782 34.3885C27.7153 32.3256 24.9174 31.1667 22 31.1667C19.0826 31.1667 16.2847 32.3256 14.2218 34.3885C12.1589 36.4514 11 39.2493 11 42.1667C11 42.6529 11.1932 43.1192 11.537 43.463C11.8808 43.8069 12.3471 44 12.8333 44C13.3196 44 13.7859 43.8069 14.1297 43.463C14.4735 43.1192 14.6667 42.6529 14.6667 42.1667C14.6667 40.2217 15.4393 38.3565 16.8146 36.9812C18.1898 35.606 20.0551 34.8333 22 34.8333C23.9449 34.8333 25.8102 35.606 27.1855 36.9812C28.5607 38.3565 29.3333 40.2217 29.3333 42.1667C29.3333 42.6529 29.5265 43.1192 29.8703 43.463C30.2141 43.8069 30.6804 44 31.1667 44C31.6529 44 32.1192 43.8069 32.463 43.463C32.8068 43.1192 33 42.6529 33 42.1667ZM33 14.6667C31.5496 14.6667 30.1318 14.2366 28.9258 13.4308C27.7199 12.625 26.7799 11.4797 26.2249 10.1397C25.6698 8.79969 25.5246 7.3252 25.8076 5.90267C26.0905 4.48015 26.789 3.17347 27.8146 2.14789C28.8401 1.1223 30.1468 0.42387 31.5693 0.140911C32.9919 -0.142047 34.4664 0.00317739 35.8063 0.55822C37.1463 1.11326 38.2916 2.05319 39.0974 3.25915C39.9032 4.46512 40.3333 5.88294 40.3333 7.33334C40.3333 9.27826 39.5607 11.1435 38.1854 12.5188C36.8102 13.8941 34.9449 14.6667 33 14.6667ZM33 3.66667C32.2748 3.66667 31.5659 3.88172 30.9629 4.28462C30.3599 4.68751 29.89 5.26017 29.6124 5.93016C29.3349 6.60016 29.2623 7.3374 29.4038 8.04867C29.5453 8.75993 29.8945 9.41327 30.4073 9.92606C30.9201 10.4389 31.5734 10.7881 32.2847 10.9296C32.9959 11.071 33.7332 10.9984 34.4032 10.7209C35.0732 10.4434 35.6458 9.97341 36.0487 9.37043C36.4516 8.76745 36.6667 8.05854 36.6667 7.33334C36.6667 6.36088 36.2804 5.42825 35.5927 4.74061C34.9051 4.05298 33.9725 3.66667 33 3.66667ZM44 27.5C43.9971 24.5835 42.8372 21.7873 40.775 19.725C38.7127 17.6628 35.9165 16.5029 33 16.5C32.5138 16.5 32.0475 16.6932 31.7036 17.037C31.3598 17.3808 31.1667 17.8471 31.1667 18.3333C31.1667 18.8196 31.3598 19.2859 31.7036 19.6297C32.0475 19.9735 32.5138 20.1667 33 20.1667C34.9449 20.1667 36.8102 20.9393 38.1854 22.3146C39.5607 23.6898 40.3333 25.5551 40.3333 27.5C40.3333 27.9862 40.5265 28.4525 40.8703 28.7964C41.2141 29.1402 41.6804 29.3333 42.1667 29.3333C42.6529 29.3333 43.1192 29.1402 43.463 28.7964C43.8068 28.4525 44 27.9862 44 27.5ZM11 14.6667C9.5496 14.6667 8.13178 14.2366 6.92582 13.4308C5.71986 12.625 4.77993 11.4797 4.22488 10.1397C3.66984 8.79969 3.52462 7.3252 3.80757 5.90267C4.09053 4.48015 4.78897 3.17347 5.81455 2.14789C6.84014 1.1223 8.14681 0.42387 9.56934 0.140911C10.9919 -0.142047 12.4664 0.00317739 13.8063 0.55822C15.1463 1.11326 16.2916 2.05319 17.0974 3.25915C17.9032 4.46512 18.3333 5.88294 18.3333 7.33334C18.3333 9.27826 17.5607 11.1435 16.1854 12.5188C14.8102 13.8941 12.9449 14.6667 11 14.6667ZM11 3.66667C10.2748 3.66667 9.56589 3.88172 8.96291 4.28462C8.35993 4.68751 7.88996 5.26017 7.61244 5.93016C7.33492 6.60016 7.26231 7.3374 7.40379 8.04867C7.54527 8.75993 7.89448 9.41327 8.40728 9.92606C8.92007 10.4389 9.57341 10.7881 10.2847 10.9296C10.9959 11.071 11.7332 10.9984 12.4032 10.7209C13.0732 10.4434 13.6458 9.97341 14.0487 9.37043C14.4516 8.76745 14.6667 8.05854 14.6667 7.33334C14.6667 6.36088 14.2804 5.42825 13.5927 4.74061C12.9051 4.05298 11.9725 3.66667 11 3.66667ZM3.66667 27.5C3.66667 25.5551 4.43928 23.6898 5.81455 22.3146C7.18982 20.9393 9.05508 20.1667 11 20.1667C11.4862 20.1667 11.9525 19.9735 12.2964 19.6297C12.6402 19.2859 12.8333 18.8196 12.8333 18.3333C12.8333 17.8471 12.6402 17.3808 12.2964 17.037C11.9525 16.6932 11.4862 16.5 11 16.5C8.08351 16.5029 5.28731 17.6628 3.22504 19.725C1.16277 21.7873 0.00291212 24.5835 0 27.5C0 27.9862 0.193154 28.4525 0.536971 28.7964C0.880788 29.1402 1.3471 29.3333 1.83333 29.3333C2.31956 29.3333 2.78588 29.1402 3.1297 28.7964C3.47351 28.4525 3.66667 27.9862 3.66667 27.5Z" fill="#C0B7E8"/>
</g>
<defs>
<clipPath id="clip0_738_267">
<rect width="44" height="44" fill="white"/>
</clipPath>
</defs>
</svg>
