<svg width="38" height="38" viewBox="0 0 38 38" fill="none" xmlns="http://www.w3.org/2000/svg">
<g id="user" clip-path="url(#clip0_738_255)">
<path id="Vector" d="M18.5859 18.9702C20.4154 18.9702 22.2038 18.4277 23.725 17.4113C25.2461 16.3949 26.4317 14.9503 27.1318 13.26C27.8319 11.5698 28.0151 9.70996 27.6582 7.91563C27.3013 6.12131 26.4203 4.47312 25.1267 3.17948C23.833 1.88585 22.1848 1.00487 20.3905 0.647955C18.5962 0.291042 16.7363 0.474223 15.0461 1.17433C13.3559 1.87444 11.9112 3.06004 10.8948 4.58119C9.87844 6.10235 9.33594 7.89074 9.33594 9.72022C9.33839 12.1727 10.3137 14.5241 12.0479 16.2583C13.7821 17.9924 16.1334 18.9678 18.5859 18.9702ZM18.5859 3.55355C19.8056 3.55355 20.9978 3.91522 22.012 4.59282C23.0261 5.27042 23.8165 6.23353 24.2832 7.36034C24.7499 8.48715 24.8721 9.72706 24.6341 10.9233C24.3962 12.1195 23.8089 13.2183 22.9464 14.0807C22.084 14.9431 20.9852 15.5305 19.789 15.7684C18.5928 16.0063 17.3529 15.8842 16.2261 15.4175C15.0992 14.9507 14.1361 14.1603 13.4585 13.1462C12.7809 12.1321 12.4193 10.9399 12.4193 9.72022C12.4193 8.08472 13.069 6.5162 14.2254 5.35973C15.3819 4.20325 16.9504 3.55355 18.5859 3.55355Z" fill="#C0B7E8"/>
<path id="Vector_2" d="M18.793 22.0535C15.1143 22.0575 11.5876 23.5207 8.98637 26.1219C6.38519 28.723 4.92205 32.2498 4.91797 35.9285C4.91797 36.3373 5.08039 36.7295 5.36951 37.0186C5.65863 37.3077 6.05076 37.4701 6.45964 37.4701C6.86851 37.4701 7.26064 37.3077 7.54976 37.0186C7.83888 36.7295 8.0013 36.3373 8.0013 35.9285C8.0013 33.0663 9.13828 30.3214 11.1621 28.2976C13.1859 26.2738 15.9308 25.1368 18.793 25.1368C21.6551 25.1368 24.4 26.2738 26.4238 28.2976C28.4477 30.3214 29.5846 33.0663 29.5846 35.9285C29.5846 36.3373 29.7471 36.7295 30.0362 37.0186C30.3253 37.3077 30.7174 37.4701 31.1263 37.4701C31.5352 37.4701 31.9273 37.3077 32.2164 37.0186C32.5055 36.7295 32.668 36.3373 32.668 35.9285C32.6639 32.2498 31.2008 28.723 28.5996 26.1219C25.9984 23.5207 22.4716 22.0575 18.793 22.0535Z" fill="#C0B7E8"/>
</g>
<defs>
<clipPath id="clip0_738_255">
<rect width="37" height="37" fill="white" transform="translate(0.5 0.5)"/>
</clipPath>
</defs>
</svg>
